<?xml version="1.0" encoding="UTF-8"?>
<svg width="79px" height="79px" viewBox="0 0 79 79" version="1.1" xmlns="http://www.w3.org/2000/svg" xmlns:xlink="http://www.w3.org/1999/xlink">
    <!-- Generator: Sketch 49.3 (51167) - http://www.bohemiancoding.com/sketch -->
    <title>broken_link</title>
    <desc>Created with Sketch.</desc>
    <defs></defs>
    <g id="2.0" stroke="none" stroke-width="1" fill="none" fill-rule="evenodd">
        <path d="M21.3,69 L42.6,47.7 C45,52.7 44.1,58.9 40,63 L28.1,74.9 C22.9,80.1 14.4,80.1 9.2,74.9 L3.9,69.6 C-1.3,64.4 -1.3,55.9 3.9,50.7 L15.9,38.9 C20,34.7 26.2,33.9 31.2,36.3 L9.9,57.6 C8.7,58.8 8.7,60.7 9.9,61.9 L17,69 C18.2,70.2 20.1,70.2 21.3,69 Z M74.9,9.2 C80.2,14.4 80.2,22.8 74.9,28 L63,39.9 C58.9,44.1 52.7,44.9 47.7,42.5 L68.9,21.2 C70.1,20 70.1,18.1 68.9,16.9 L61.8,9.8 C60.6,8.6 58.7,8.6 57.5,9.8 L36.2,31.1 C33.8,26.1 34.7,19.9 38.8,15.8 L50.7,3.9 C55.9,-1.3 64.4,-1.3 69.6,3.9 L74.9,9.2 Z M19.3,23.2 L10.2,14.1 C9.1,13.1 9.1,11.4 10.2,10.3 C11.2,9.2 12.9,9.2 14,10.3 L23.1,19.4 C24.2,20.4 24.2,22.1 23.1,23.2 C22.6,23.7 21.9,24 21.2,24 C20.5,24 19.8,23.7 19.3,23.2 Z M20.6,26 C22.1,26 23.3,27.2 23.3,28.7 C23.3,30.2 22.1,31.4 20.6,31.4 L12.3,31.3 C10.8,31.3 9.6,30.1 9.6,28.6 C9.6,27.1 10.8,25.9 12.3,25.9 L20.6,26 Z M28.7,23.3 C27.2,23.3 26,22.1 26,20.6 L25.9,12.3 C25.9,10.8 27.1,9.6 28.6,9.6 C30.1,9.6 31.3,10.8 31.3,12.3 L31.4,20.6 C31.4,22.1 30.2,23.3 28.7,23.3 Z M59.5,55.6 L68.6,64.7 C69.7,65.7 69.7,67.4 68.6,68.5 C68.1,69 67.4,69.3 66.7,69.3 C66,69.3 65.3,69 64.8,68.5 L55.7,59.4 C54.6,58.4 54.6,56.7 55.7,55.6 C56.7,54.5 58.4,54.5 59.5,55.6 Z M50.1,55.5 C51.6,55.5 52.8,56.7 52.8,58.2 L52.8,66.5 C52.8,68 51.6,69.2 50.1,69.2 C48.6,69.2 47.4,68 47.4,66.5 L47.4,58.2 C47.4,56.7 48.6,55.5 50.1,55.5 Z M58.2,52.8 C56.7,52.8 55.5,51.6 55.5,50.1 C55.5,48.6 56.7,47.4 58.2,47.4 L66.5,47.4 C68,47.4 69.2,48.6 69.2,50.1 C69.2,51.6 68,52.8 66.5,52.8 L58.2,52.8 Z" id="broken_link" fill="#3C3C3C" fill-rule="nonzero"></path>
    </g>
</svg>