<?xml version="1.0" encoding="UTF-8"?>
<svg width="15px" height="15px" viewBox="0 0 15 15" version="1.1" xmlns="http://www.w3.org/2000/svg" xmlns:xlink="http://www.w3.org/1999/xlink">
    <!-- Generator: Sketch 49.3 (51167) - http://www.bohemiancoding.com/sketch -->
    <title>facebook</title>
    <desc>Created with Sketch.</desc>
    <defs></defs>
    <g id="2.0" stroke="none" stroke-width="1" fill="none" fill-rule="evenodd">
        <g id="home-desktop" transform="translate(-836.000000, -4402.000000)" fill="#FFFFFF" fill-rule="nonzero">
            <g id="footer" transform="translate(0.000000, 4352.000000)">
                <path d="M851,52.5001667 C851,51.1865 849.814,50 848.5,50 L838.5,50 C837.186,50 836,51.1865 836,52.5001667 L836,62.4998333 C836,63.8135 837.186,65 838.500167,65 L843.5,65 L843.5,59.3333333 L841.666667,59.3333333 L841.666667,56.8333333 L843.5,56.8333333 L843.5,55.8593333 C843.5,54.1795 844.761333,52.6666667 846.3125,52.6666667 L848.333333,52.6666667 L848.333333,55.1666667 L846.3125,55.1666667 C846.091333,55.1666667 845.833333,55.4351667 845.833333,55.8373333 L845.833333,56.8333333 L848.333333,56.8333333 L848.333333,59.3333333 L845.833333,59.3333333 L845.833333,65 L848.5,65 C849.814,65 851,63.8135 851,62.4998333 L851,52.5001667 Z" id="facebook"></path>
            </g>
        </g>
    </g>
</svg>