<?xml version="1.0" encoding="UTF-8"?>
<svg width="15px" height="15px" viewBox="0 0 15 15" version="1.1" xmlns="http://www.w3.org/2000/svg" xmlns:xlink="http://www.w3.org/1999/xlink">
    <!-- Generator: Sketch 49.3 (51167) - http://www.bohemiancoding.com/sketch -->
    <title>instagram</title>
    <desc>Created with Sketch.</desc>
    <defs></defs>
    <g id="2.0" stroke="none" stroke-width="1" fill="none" fill-rule="evenodd">
        <g id="home-desktop" transform="translate(-836.000000, -4424.000000)" fill="#FFFFFF" fill-rule="nonzero">
            <g id="footer" transform="translate(0.000000, 4352.000000)">
                <g id="instagram" transform="translate(836.000000, 72.000000)">
                    <path d="M10.8604536,0 L4.13936899,0 C1.85692231,0 0,1.85701104 0,4.13945771 L0,10.8605423 C0,13.1430777 1.85692231,15 4.13936899,15 L10.8604536,15 C13.1430777,15 15,13.142989 15,10.8605423 L15,4.13945771 C15.0000887,1.85701104 13.1430777,0 10.8604536,0 Z M13.669216,10.8605423 C13.669216,12.4092345 12.4092345,13.6691273 10.8605423,13.6691273 L4.13936899,13.6691273 C2.59076552,13.669216 1.3308727,12.4092345 1.3308727,10.8605423 L1.3308727,4.13945771 C1.3308727,2.59085424 2.59076552,1.3308727 4.13936899,1.3308727 L10.8604536,1.3308727 C12.4091458,1.3308727 13.6691273,2.59085424 13.6691273,4.13945771 L13.6691273,10.8605423 L13.669216,10.8605423 Z" id="Shape"></path>
                    <path d="M7.5,4 C5.57007093,4 4,5.57010697 4,7.50008035 C4,9.42997337 5.57007093,11 7.5,11 C9.42992907,11 11,9.42997337 11,7.50008035 C11,5.57010697 9.42992907,4 7.5,4 Z M7.5,9.79474083 C6.23467163,9.79474083 5.20515116,8.76535742 5.20515116,7.5 C5.20515116,6.23456223 6.23459128,5.20509848 7.5,5.20509848 C8.76540872,5.20509848 9.79484884,6.23456223 9.79484884,7.5 C9.79484884,8.76535742 8.76532837,9.79474083 7.5,9.79474083 Z" id="Shape"></path>
                    <path d="M11,2 C10.7372727,2 10.4791818,2.10636364 10.2936364,2.29272727 C10.1071818,2.47818182 10,2.73636364 10,3 C10,3.26281818 10.1072727,3.52090909 10.2936364,3.70727273 C10.4790909,3.89272727 10.7372727,4 11,4 C11.2636364,4 11.5209091,3.89272727 11.7072727,3.70727273 C11.8936364,3.52090909 12,3.26272727 12,3 C12,2.73636364 11.8936364,2.47818182 11.7072727,2.29272727 C11.5218182,2.10636364 11.2636364,2 11,2 Z" id="Shape"></path>
                </g>
            </g>
        </g>
    </g>
</svg>