<svg width="15" height="15" viewBox="0 0 15 15" xmlns="http://www.w3.org/2000/svg"><title>instagram</title><g fill="#FFF"><path d="M10.86 0H4.14A4.144 4.144 0 0 0 0 4.14v6.72A4.144 4.144 0 0 0 4.14 15h6.72A4.144 4.144 0 0 0 15 10.86V4.14A4.144 4.144 0 0 0 10.86 0zm2.81 10.86a2.812 2.812 0 0 1-2.81 2.81H4.14a2.812 2.812 0 0 1-2.81-2.81V4.14a2.812 2.812 0 0 1 2.81-2.81h6.72a2.812 2.812 0 0 1 2.81 2.81v6.72z"/><path d="M7.5 4C5.57 4 4 5.57 4 7.5S5.57 11 7.5 11 11 9.43 11 7.5 9.43 4 7.5 4zm0 5.795A2.297 2.297 0 0 1 5.205 7.5 2.297 2.297 0 0 1 7.5 5.205 2.297 2.297 0 0 1 9.795 7.5 2.297 2.297 0 0 1 7.5 9.795zM11 2a1.004 1.004 0 0 0-1 1 1.006 1.006 0 0 0 1 1c.264 0 .52-.107.707-.293a1.004 1.004 0 0 0 0-1.415A1.004 1.004 0 0 0 11 2z"/></g></svg>