<svg width="15" height="15" viewBox="0 0 15 15" xmlns="http://www.w3.org/2000/svg"><title>linkedin</title><path d="M13.892 0H1.108C.496 0 0 .481 0 1.075v12.85C0 14.519.496 15 1.108 15h12.784c.612 0 1.108-.482 1.108-1.075V1.075C15 .48 14.504 0 13.892 0zM4.548 12.556H2.28V5.784h2.267v6.772zM3.415 4.858h-.016c-.76 0-1.252-.52-1.252-1.17 0-.664.507-1.17 1.282-1.17s1.252.506 1.267 1.17c0 .65-.492 1.17-1.281 1.17zm9.302 7.698h-2.265V8.933c0-.91-.329-1.532-1.148-1.532-.627 0-.999.419-1.162.824-.06.144-.076.346-.076.548v3.783H5.801s.03-6.137 0-6.772h2.266v.96c.3-.462.838-1.12 2.04-1.12 1.492 0 2.61.968 2.61 3.049v3.883zm-4.665-5.75a.76.76 0 0 1 .042-.062v.061h-.042z" fill="#FFF"/></svg>