<?xml version="1.0" encoding="UTF-8"?>
<svg width="15px" height="15px" viewBox="0 0 15 15" version="1.1" xmlns="http://www.w3.org/2000/svg" xmlns:xlink="http://www.w3.org/1999/xlink">
    <!-- Generator: Sketch 49.3 (51167) - http://www.bohemiancoding.com/sketch -->
    <title>linkedin</title>
    <desc>Created with Sketch.</desc>
    <defs></defs>
    <g id="2.0" stroke="none" stroke-width="1" fill="none" fill-rule="evenodd">
        <g id="home-desktop" transform="translate(-836.000000, -4379.000000)" fill="#FFFFFF" fill-rule="nonzero">
            <g id="footer" transform="translate(0.000000, 4352.000000)">
                <path d="M849.892384,27 L837.108313,27 C836.49616,27 836,27.4810192 836,28.0747167 L836,40.9248299 C836,41.5185623 836.496335,42 837.108313,42 L849.892384,42 C850.504398,42 851,41.5182485 851,40.9248299 L851,28.0747167 C851,27.4811935 850.504398,27 849.892384,27 Z M840.547572,39.5560195 L838.28118,39.5560195 L838.28118,32.7837035 L840.547572,32.7837035 L840.547572,39.5560195 Z M839.414603,31.8584923 L839.399362,31.8584923 C838.639341,31.8584923 838.146668,31.338728 838.146668,30.6880112 C838.146668,30.0241817 838.653814,29.5185065 839.428901,29.5185065 C840.204058,29.5185065 840.680863,30.0240422 840.695929,30.6880112 C840.695929,31.3388675 840.204232,31.8584923 839.414603,31.8584923 Z M848.717251,39.5560195 L846.451591,39.5560195 L846.451591,35.9325952 C846.451591,35.0221358 846.123316,34.4008877 845.303974,34.4008877 C844.677173,34.4008877 844.305097,34.8200052 844.141709,35.22465 C844.081167,35.3691685 844.066171,35.571299 844.066171,35.7731506 L844.066171,39.55588 L841.800929,39.55588 C841.800929,39.55588 841.830572,33.4187618 841.800929,32.7835989 L844.06652,32.7835989 L844.06652,33.7437192 C844.367278,33.282369 844.90473,32.6242589 846.107867,32.6242589 C847.599103,32.6242589 848.717251,33.591633 848.717251,35.6727479 L848.717251,39.5560195 Z M844.051872,33.8052238 C844.062972,33.7870238 844.078472,33.7651238 844.093872,33.7438238 L844.093872,33.8052238 L844.051872,33.8052238 Z" id="linkedin"></path>
            </g>
        </g>
    </g>
</svg>